<svg width="100" height="101" viewBox="0 0 100 101" fill="none" xmlns="http://www.w3.org/2000/svg">
<path d="M99.9906 100.521H-0.0093689L6.39735 84.5043H93.5847L99.9906 100.521Z" fill="#FBC341"/>
<path d="M99.1217 98.3492L94.9095 87.8165L99.1217 98.3492Z" fill="#DEBAA1"/>
<path d="M99.1217 98.3492L27.3728 93.3303C27.6975 93.1504 27.9416 92.6738 28.0182 92.096L73.0911 89.2126L73.2017 89.3095C73.449 89.526 73.5865 90.0055 73.5414 90.4905L73.2855 93.2108H79.392V91.2046L77.6509 88.9215L94.9095 87.8165L99.1217 98.3492V98.3492ZM25.2478 93.1813L23.7934 93.0801L24.6221 92.9381C24.6553 92.9324 24.6877 92.9296 24.7209 92.9296C24.9002 92.9296 25.0771 93.0112 25.2343 93.1686C25.2391 93.1729 25.2438 93.1771 25.2478 93.1813Z" fill="#DC9632"/>
<path d="M49.0277 27.5208L48.6611 13.0053L45.6821 13.2232L45.5518 16.513L44.6638 17.0837L44.821 17.4057C45.0896 17.9553 45.1813 18.7103 45.0636 19.4076L45.1836 26.2822L49.0277 27.5208Z" fill="#F0724E"/>
<path d="M45.4854 19.1869C45.5462 19.1531 45.6071 19.118 45.6679 19.0814L46.0345 18.8565C46.6625 18.4685 47.1357 17.5364 47.2881 16.3864L47.4809 14.9272C47.4833 14.9272 47.4856 14.9272 47.4872 14.9272C47.4833 15.2716 47.5251 15.7313 47.7163 16.1615C47.71 16.2754 47.7037 16.3583 47.6966 16.4005C47.3032 18.7005 46.2556 19.1728 45.4854 19.1869Z" fill="#D3583A"/>
<path d="M45.3867 9.99261C45.6695 13.2922 47.2352 15.602 48.8839 15.1549C50.5334 14.7078 51.6401 11.6698 51.3573 8.37165C51.0737 5.07211 49.5079 2.76089 47.8593 3.20936C46.2106 3.65642 45.1038 6.69447 45.3867 9.99261" fill="#682B22"/>
<path d="M51.3233 10.1107C51.0105 10.1107 50.7095 9.88859 50.4275 9.44574L50.4141 9.07739L50.6218 9.0521C50.8873 9.46682 51.1661 9.63973 51.4489 9.56944C52.103 9.40917 52.6078 8.04128 52.6126 8.02582L52.8164 7.94989L52.8606 8.31262C52.8369 8.37728 52.2792 9.89419 51.4916 10.0882L51.3233 10.1107" fill="#682B22"/>
<path d="M49.4582 17.6377C49.1193 17.6377 48.4644 17.5364 48.0425 16.8251C47.77 16.364 47.6412 15.7327 47.6618 14.9454C47.6657 14.802 47.7368 14.6727 47.8158 14.6966C47.8972 14.7036 47.9604 14.8245 47.9565 14.9707C47.9399 15.5977 48.037 16.094 48.2456 16.4455C48.6587 17.1414 49.3918 17.1231 49.5949 17.1062C49.6288 17.102 49.6478 17.0992 49.6486 17.1006C49.7378 17.0781 49.8018 17.1906 49.8105 17.3354C49.8184 17.4788 49.7592 17.6067 49.6786 17.6222C49.6675 17.6236 49.5838 17.6377 49.4582 17.6377" fill="#682B22"/>
<path d="M49.1817 17.386C48.8515 17.386 48.4952 17.2721 48.229 16.8897C47.9233 16.4497 47.7929 15.7467 47.8427 14.8006C47.8498 14.6558 47.9193 14.5475 48.0039 14.563C48.0836 14.5771 48.1437 14.7036 48.1366 14.8484C48.0971 15.609 48.1903 16.1586 48.4138 16.4806C48.9289 17.2229 49.9796 16.6521 49.9899 16.6465C50.0689 16.6057 50.1502 16.6816 50.1747 16.818C50.1992 16.9572 50.1557 17.1034 50.0775 17.1484C50.0491 17.1652 49.6423 17.386 49.1817 17.386" fill="#682B22"/>
<path d="M42.1754 6.09555C42.0324 9.06331 43.7151 11.7415 45.9317 12.0775C48.1492 12.4163 50.0617 10.2836 50.2039 7.31582C50.3461 4.34806 48.6643 1.6699 46.4476 1.3339C44.2301 0.995093 42.3176 3.12779 42.1754 6.09555Z" fill="#682B22"/>
<path d="M46.45 2.16341C48.4739 2.46989 50.0475 4.73189 50.1984 7.38193L50.2039 7.31586C50.3461 4.3481 48.6643 1.66994 46.4476 1.33394C44.2301 0.996533 42.3176 3.12783 42.1754 6.09559C42.1627 6.35286 42.1691 6.60871 42.1833 6.85896C42.3508 3.92634 44.2499 1.82741 46.45 2.16341" fill="#B14B3C"/>
<path d="M48.1026 6.18553C48.3064 8.55861 49.4938 10.2063 50.7554 9.86327C52.0169 9.52024 52.8749 7.31867 52.6711 4.94559C52.4672 2.5725 51.2791 0.924818 50.0175 1.26785C48.7567 1.61088 47.8996 3.81104 48.1026 6.18553Z" fill="#682B22"/>
<path d="M48.3918 6.54124C48.1879 4.16675 49.0459 1.96518 50.3074 1.62356C50.832 1.48016 51.3423 1.68681 51.776 2.14091C51.291 1.44079 50.6645 1.09214 50.0175 1.26788C48.7567 1.6109 47.8996 3.81106 48.1026 6.18555C48.2219 7.57173 48.6777 8.70625 49.2868 9.34591C48.8254 8.67954 48.4913 7.69826 48.3918 6.54124Z" fill="#B14B3C"/>
<path d="M47.078 11.0596C45.5652 11.0596 44.4363 10.396 43.7143 9.07876C42.76 7.33972 42.8974 5.13112 42.9038 5.03833C42.9235 4.74873 43.0752 4.55191 43.2308 4.57862C43.3928 4.61517 43.5081 4.87387 43.4899 5.16066C43.4884 5.17894 43.3833 6.98546 44.1425 8.35757C44.8914 9.71282 46.209 10.2372 48.0599 9.92087C48.2203 9.89978 48.3657 10.1036 48.3815 10.3918C48.3973 10.6814 48.2788 10.9373 48.116 10.964C47.7518 11.0273 47.4066 11.0596 47.078 11.0596" fill="#682B22"/>
<path d="M46.1948 8.57264L46.5076 9.54833C46.5076 9.54833 47.1325 11.3056 48.3104 10.77L48.6477 9.37541L48.9984 8.07781L48.575 7.21741L47.3616 7.22867L46.3062 8.57127L46.1948 8.57264" fill="#682B22"/>
<path d="M44.5043 5.4123C44.5043 5.4123 42.9251 6.69025 42.9472 10.4608C42.948 10.7841 42.903 11.1018 42.8177 11.3872L42.158 13.5761C42.1138 13.7223 42.1154 13.8981 42.1636 14.0415C42.2118 14.1863 42.2994 14.2762 42.3942 14.2748L42.6178 14.2734L42.6952 14.3325L42.7584 14.4534L42.76 14.7641L42.6202 15.0424L42.7679 15.3897L42.7481 15.8663L42.7229 16.139C42.6936 16.4581 42.8382 16.6198 42.9243 16.9038L42.8153 18.0467C42.8208 18.9451 43.2411 19.6607 43.7459 19.6283L44.08 19.6086C44.6204 19.5735 45.156 19.3963 45.6679 19.0814L46.0344 18.8565C46.6625 18.4685 47.1357 17.5364 47.2881 16.3864L47.4809 14.9272C49.0419 14.9117 50.2079 12.332 49.8563 9.62568C49.6162 7.77558 49.083 6.03089 47.9517 5.529C47.9517 5.529 46.0336 4.41977 44.5043 5.4123" fill="#F0724E"/>
<path d="M42.9243 16.9038C42.8461 16.6451 42.7189 16.4876 42.7189 16.2219C42.7236 16.2219 42.7284 16.2219 42.7331 16.2219C42.7758 16.2219 42.8342 16.1994 42.9148 16.1362C42.9148 16.1362 43.2711 15.9042 43.497 15.5738C43.407 16.2824 42.9243 16.9038 42.9243 16.9038Z" fill="#D3583A"/>
<path d="M43.5997 15.273C43.4749 15.2393 43.1107 15.1141 42.8564 14.7374C42.8564 14.7374 42.7458 14.4126 42.5554 14.6361C42.5554 14.6361 42.4527 14.9946 42.6944 15.3897C42.6944 15.3897 42.5751 15.8677 42.6194 16.0504C42.6194 16.0504 42.6146 16.371 42.9148 16.1362C42.9148 16.1362 43.4378 15.796 43.6195 15.3503L43.5997 15.273" fill="#B73C2B"/>
<path d="M42.6984 14.2776C42.6699 14.2776 42.6431 14.2762 42.6178 14.2734H42.6052L42.3942 14.2748C42.3934 14.2748 42.3926 14.2748 42.3918 14.2748C42.2978 14.2748 42.211 14.1848 42.1636 14.0415C42.1177 13.9051 42.1154 13.7392 42.1533 13.5972L42.162 13.5648C42.162 13.5648 42.1699 13.5817 42.1991 13.5817C42.2441 13.5817 42.3381 13.5424 42.5293 13.3413C42.5293 13.3413 42.6059 13.2232 42.7387 13.2232C42.8248 13.2232 42.933 13.271 43.0602 13.4327L43.2632 13.5213L43.3872 13.3947C43.3872 13.3947 43.5207 14.0991 43.1708 14.1891C43.1708 14.1891 42.9085 14.2776 42.6984 14.2776" fill="#D3583A"/>
<path d="M43.3872 10.9669C43.4789 10.7813 43.6053 10.6927 43.7309 10.6365L43.9236 10.5859L44.0208 10.5817H44.069L44.1124 10.5845C44.2293 10.5887 44.3486 10.5831 44.4616 10.5606L44.6227 10.5016L44.7333 10.368L44.7389 10.3497L44.7965 10.3174L44.8179 10.4031L44.8013 10.5086L44.7681 10.5986L44.7254 10.666L44.6804 10.7208L44.49 10.846C44.362 10.898 44.2349 10.9092 44.1077 10.9036L43.9284 10.8924L43.7561 10.9008C43.6416 10.9177 43.5247 10.9514 43.4212 11.0329L43.4156 11.0372L43.3825 11.0147L43.3872 10.9669" fill="#682B22"/>
<path d="M43.8335 11.1876C43.8343 11.3928 43.7885 11.5601 43.7301 11.5601C43.6732 11.5615 43.6258 11.3942 43.6258 11.189C43.625 10.9823 43.6708 10.815 43.7285 10.8136C43.7862 10.8136 43.8328 10.9795 43.8335 11.1876Z" fill="#682B22"/>
<path d="M43.5926 11.6796L43.5824 11.6782L43.5618 11.6374L43.5855 11.6009L43.7348 11.5025C43.7696 11.4322 43.7814 11.3296 43.768 11.1932L43.787 11.1482L43.8114 11.1805C43.8265 11.3408 43.8123 11.4673 43.7672 11.5545L43.5926 11.6796" fill="#682B22"/>
<path d="M43.3193 9.29673L43.4947 9.10974L43.6882 9.06056C43.817 9.03244 43.9473 9.03242 44.0753 9.04508C44.2041 9.06054 44.3313 9.09288 44.4553 9.15052C44.5801 9.20535 44.6994 9.28828 44.8124 9.38528L44.8226 9.43732L44.8005 9.4598H44.7989C44.6757 9.43168 44.5564 9.40076 44.4355 9.40076C44.3155 9.39233 44.1954 9.39794 44.0777 9.42043C43.9592 9.43449 43.8423 9.46966 43.7269 9.51183L43.5579 9.58635L43.3762 9.5765L43.3612 9.56524L43.3051 9.34032L43.3193 9.29673" fill="#682B22"/>
<path d="M42.5412 13.8798C42.6075 13.8235 42.6763 13.7912 42.7489 13.7884L42.9607 13.8742L43.1289 13.9234L43.2759 13.7547L43.298 13.7519L43.3027 13.7814C43.2806 13.8981 43.2261 14.0161 43.1471 14.0597C43.0689 14.1047 42.9891 14.0682 42.9227 14.0063L42.7481 13.8967L42.5641 13.9557L42.5617 13.9585L42.5293 13.936L42.5412 13.8798" fill="#682B22"/>
<path d="M43.0617 4.80218C42.933 7.46769 44.5406 9.88856 46.6506 10.2077C48.7599 10.5296 50.5736 8.62752 50.7016 5.96342C50.8304 3.29792 49.2228 0.878447 47.1135 0.556507C45.0035 0.235972 43.1897 2.13668 43.0617 4.80218" fill="#682B22"/>
<path d="M43.1961 5.08336C43.3232 2.42208 45.2152 0.535425 47.4216 0.87283C48.0157 0.961399 48.5703 1.20882 49.0632 1.56591C48.5063 1.03168 47.8403 0.667575 47.1135 0.556512C45.0035 0.235977 43.1897 2.13669 43.0617 4.80219C42.9962 6.16728 43.388 7.46628 44.0674 8.4546C43.4725 7.50424 43.136 6.32051 43.1961 5.08336Z" fill="#B14B3C"/>
<path d="M45.1513 6.52013C45.1513 6.52013 44.9869 7.30317 45.867 8.32664C45.867 8.32664 46.2699 8.96631 46.1364 9.59613C46.1364 9.59613 45.6221 11.196 46.1537 11.7077C46.1537 11.7077 46.559 12.2012 46.7462 11.7007C46.7462 11.7007 47.1009 10.2681 47.7756 10.801C47.7756 10.801 48.4928 11.2804 48.1784 13.0939C48.1784 13.0939 48.0283 14.0429 47.5354 14.3845C47.5354 14.3845 47.1262 16.4384 48.6943 17.1498C48.6943 17.1498 50.7972 16.5172 50.9181 11.2565C50.9679 9.07316 50.392 6.96999 49.365 5.76939C48.782 5.08755 47.9849 4.54069 46.9034 4.41135C46.9034 4.41135 45.5375 4.185 45.1749 5.49526C45.1749 5.49526 45.0462 5.72864 45.1513 6.52013" fill="#682B22"/>
<path d="M47.2091 14.2608C47.1886 14.2608 47.1688 14.2523 47.1499 14.2354L47.0954 14.1877L47.1507 13.9796C47.3395 13.1515 47.2684 12.3179 47.0014 12.0325C47.0567 11.8596 47.2431 11.3422 47.4951 11.3422C47.5307 11.3422 47.5678 11.3535 47.6065 11.3759C47.6065 11.3759 48.3973 11.9509 47.6855 13.5634C47.6855 13.5634 47.4082 14.2608 47.2091 14.2608" fill="#BE462D"/>
<path d="M47.172 14.6291C47.172 14.7894 47.0993 14.9201 47.01 14.9215C46.9192 14.9215 46.8465 14.7922 46.8465 14.6333C46.8457 14.4717 46.9176 14.3423 47.0085 14.3409C47.0977 14.3409 47.1712 14.4702 47.172 14.6291Z" fill="#923C1D"/>
<path d="M52.799 51.9349L51.6251 49.9653L51.5256 48.1306C51.3297 44.5092 51.6543 40.861 52.4696 37.5052C53.1284 34.7933 53.4674 31.8804 53.4674 28.9379V25.3375C53.4674 24.5825 53.1774 23.926 52.7651 23.7475L49.9993 22.5553H45.374L41.8373 23.292C41.4644 23.3693 41.1832 23.9316 41.1832 24.5994V33.2694L40.1942 37.4954C39.9137 38.6903 40.3071 40.0357 41.0299 40.3605C41.376 40.5137 41.6169 41.0522 41.6169 41.6665V45.6015C41.6169 47.7342 41.5782 47.3799 41.496 49.9344L52.799 51.9349" fill="#F0724E"/>
<path d="M51.5888 43.1455C51.5864 43.1455 51.5848 43.1455 51.5832 43.1455C51.6883 41.7832 51.8668 40.4392 52.1173 39.1303L52.1204 39.136C51.8708 40.4434 51.6931 41.7846 51.5888 43.1455ZM41.0213 40.3562C41.0197 40.3548 41.0181 40.3548 41.0165 40.3534C41.0181 40.3534 41.0197 40.3548 41.0213 40.3562ZM41.0118 40.352C41.0102 40.3506 41.0086 40.3492 41.0062 40.3492C41.0086 40.3492 41.0102 40.3506 41.0118 40.352ZM41.0031 40.3464C41.0007 40.3464 40.9991 40.345 40.9968 40.3436C40.9991 40.345 41.0007 40.3464 41.0031 40.3464ZM40.9952 40.3436C40.9873 40.3394 40.9802 40.3352 40.9731 40.3309C40.9802 40.3352 40.9873 40.3394 40.9952 40.3436ZM40.9715 40.3309C40.9691 40.3295 40.9667 40.3281 40.9644 40.3267C40.9667 40.3281 40.9691 40.3295 40.9715 40.3309ZM40.962 40.3253C40.9604 40.3239 40.9581 40.3239 40.9557 40.3225C40.9581 40.3239 40.9604 40.3239 40.962 40.3253ZM40.9533 40.3211C40.9509 40.3197 40.9494 40.3183 40.947 40.3169C40.9494 40.3183 40.9509 40.3197 40.9533 40.3211ZM40.9462 40.3169C40.9423 40.3141 40.9391 40.3126 40.9351 40.3098C40.9391 40.3126 40.9423 40.3141 40.9462 40.3169ZM40.9296 40.307C40.9288 40.3056 40.9273 40.3056 40.9265 40.3042C40.9273 40.3056 40.9288 40.3056 40.9296 40.307ZM40.9201 40.3014C40.9193 40.3 40.9186 40.3 40.9178 40.3C40.9186 40.3 40.9193 40.3 40.9201 40.3014Z" fill="#DEBAA1"/>
<path d="M51.5832 43.1455C48.684 43.1455 44.0271 43.1455 41.6169 43.1455V41.6665L51.7357 41.5906C51.8352 40.7597 51.9624 39.9373 52.1172 39.1289V39.1303C51.8668 40.4392 51.6883 41.7832 51.5832 43.1455Z" fill="#D3583A"/>
<path d="M44.2175 55.1121C40.5599 53.6233 33.8672 52.8726 30.1148 52.8726C28.2355 52.8726 26.6555 55.3821 26.443 58.7055L25.1064 84.2668C24.9492 86.7284 24.0328 88.8288 22.7301 89.7102L20.6225 91.1386C20.4929 91.2257 20.3554 91.2708 20.2172 91.2708H20C19.7653 91.2708 19.537 91.3987 19.3451 91.6391C19.1531 91.8795 18.9248 92.0074 18.6902 92.0074H18.4603V92.7075C18.4603 93.0941 18.6365 93.4076 18.8537 93.4076H21.8896L24.6221 92.9381C24.8338 92.9029 25.0479 92.9817 25.2343 93.1687C25.39 93.3247 25.5669 93.4076 25.7462 93.4076H27.0876C27.7022 93.4076 28.1573 92.387 28.0182 91.3213L27.6351 88.3929L30.4814 74.0434C30.934 71.7603 31.0154 64.6804 30.716 62.32L36.9489 63.761C37.7681 64.1209 38.5612 64.6494 39.3117 65.3369C40.4991 66.4264 41.7883 67.1139 43.1163 67.367L50.3121 68.7335L44.2175 55.1121" fill="#D4533A"/>
<path d="M28.0482 72.5475L26.3166 80.2122H25.3647L26.443 58.7055C26.6555 55.382 28.2355 52.8726 30.1148 52.8726C33.8672 52.8726 40.5599 53.6233 44.2175 55.1121L50.3121 68.7334L43.1163 67.367C41.7883 67.1139 40.4991 66.4264 39.3117 65.3369C38.5612 64.6494 37.7681 64.1208 36.9489 63.7609L30.716 62.3199C31.0154 64.6803 30.934 71.7603 30.4814 74.0434L29.2577 80.2122H28.3152L28.0482 72.5475" fill="#223C50"/>
<path d="M49.8729 68.6505L45.7753 67.8716L32.9398 52.9822C35.7197 53.1734 39.0558 53.6205 41.7567 54.3206C41.8333 54.8127 41.9266 55.2963 42.0348 55.7715C43.4386 61.9165 44.7215 67.2671 48.3641 68.0375C48.7686 68.1233 49.0743 68.1374 49.2346 68.1374C49.316 68.1374 49.3602 68.1331 49.3602 68.1331L49.8729 68.6505Z" fill="#1D2F38"/>
<path d="M26.6137 75.2075L26.6216 75.334C26.6524 75.4942 26.7495 75.58 26.8396 75.5252L28.9093 74.2768C28.9986 74.2219 29.046 74.049 29.016 73.8902C28.986 73.7299 28.8888 73.6441 28.7987 73.6976L26.7298 74.9474L26.6137 75.2075Z" fill="#223C50"/>
<path d="M26.6689 73.7228L26.7637 74.0251L28.7229 75.7459C28.8082 75.8218 28.9109 75.7599 28.9528 75.6081C28.9946 75.4577 28.9599 75.2735 28.8753 75.2004L26.9154 73.4782C26.8309 73.4023 26.7274 73.4642 26.6855 73.6174L26.6689 73.7228" fill="#223C50"/>
<path d="M26.4486 76.9395L26.4564 77.0674C26.4873 77.2263 26.5844 77.3134 26.6745 77.2586L28.7442 76.0102C28.8335 75.9554 28.8809 75.7825 28.8509 75.6236C28.8208 75.4619 28.7229 75.3776 28.6336 75.431L26.5647 76.6794L26.4486 76.9395Z" fill="#223C50"/>
<path d="M26.5038 75.4549L26.5986 75.7571L28.5578 77.4793C28.6431 77.5552 28.7458 77.4934 28.7877 77.3401C28.8295 77.1911 28.7948 77.0069 28.7102 76.9324L26.7503 75.2116C26.6658 75.1357 26.5623 75.1976 26.5204 75.3494L26.5038 75.4549" fill="#223C50"/>
<path d="M26.3577 78.6124L26.3664 78.7389C26.3964 78.9006 26.4944 78.9849 26.5836 78.9315L28.6534 77.6817C28.7434 77.6283 28.7908 77.4554 28.7608 77.2951C28.7308 77.1362 28.6328 77.0505 28.5436 77.1039L26.4738 78.3523L26.3577 78.6124" fill="#223C50"/>
<path d="M26.413 77.1278L26.5086 77.4315L28.4677 79.1522C28.5523 79.2267 28.655 79.1649 28.6968 79.0145C28.7395 78.8626 28.7047 78.6785 28.6186 78.6054L26.6603 76.8832C26.575 76.8087 26.4723 76.8705 26.4304 77.0224L26.413 77.1278" fill="#223C50"/>
<path d="M51.1322 46.1779C51.0532 46.1779 51.4324 46.4577 51.4324 46.5983V48.9489C51.4324 49.41 51.5738 49.8331 51.8013 50.0538C52.9167 51.1378 53.8544 52.7221 54.5188 54.6524L55.4502 57.3587C55.6911 58.0588 55.9692 58.7167 56.2797 59.324L63.2062 72.8273C65.4442 73.8226 67.5503 75.5968 69.4004 78.0472L75.138 85.6403L75.1427 85.6318L79.392 91.2046V93.2108H73.2855L73.5414 90.4905C73.5865 90.0055 73.449 89.526 73.2017 89.3095L65.2001 82.2971C64.452 81.642 63.6525 81.2048 62.8388 80.8744C61.9193 80.5004 61.0345 79.8903 60.2122 79.0637L49.3602 68.1332C49.3602 68.1332 48.974 68.1669 48.3641 68.0376C44.7215 67.2672 43.4386 61.9165 42.0348 55.7715C41.6161 53.9368 41.4305 51.9574 41.4945 49.9793L41.6122 46.341L51.1322 46.1779" fill="#F0724E"/>
<path d="M71.177 87.5354L69.9502 86.4599L71.177 87.5354Z" fill="#DC9632"/>
<path d="M72.7688 82.5052L71.1431 80.3542H71.1438L72.7688 82.5052" fill="#DEBAA1"/>
<path d="M71.177 87.5354L69.9502 86.4599L68.1206 84.8572C68.4927 83.9181 68.7605 83.2602 68.7605 83.2602L71.1438 80.3543L72.7688 82.5052L71.177 87.5354Z" fill="#D3583A"/>
<path d="M41.496 49.9344H51.7104L51.8013 50.0538C52.9167 51.1378 53.8544 52.7221 54.5188 54.6524L55.4502 57.3587C55.6911 58.0588 55.9692 58.7167 56.2797 59.324L63.2062 72.8273C65.4442 73.8226 67.5503 75.5968 69.4004 78.0472L72.2001 81.7531L70.2607 86.7326L65.2009 82.2985C64.452 81.642 63.6525 81.2048 62.8388 80.8744C61.9193 80.5004 61.0345 79.8903 60.2129 79.0637L49.3602 68.1331C49.3602 68.1331 48.974 68.1669 48.3649 68.0376C44.6283 67.2475 43.7704 63.2056 42.0522 55.794C41.6224 53.9424 41.4313 51.9363 41.496 49.9344" fill="#3D7195"/>
<path d="M52.8061 51.2587H41.4534L41.481 50.3913H52.1007C52.3464 50.6584 52.581 50.9452 52.8061 51.2587" fill="#223C50"/>
<path d="M29.1258 26.0896L29.1589 25.1027C29.2048 23.7362 29.8699 22.6861 30.6378 22.769L42.252 24.0047C43.0191 24.0863 43.61 25.27 43.5634 26.6365L43.5302 27.6234C43.4852 28.9899 42.8192 30.0401 42.0514 29.9585L30.4371 28.7214C29.6693 28.6413 29.0792 27.4561 29.1258 26.0896Z" fill="#F0724E"/>
<path d="M35.8635 29.2992L30.7152 28.7523C30.7042 28.7509 30.6931 28.7495 30.6828 28.7481L35.8635 29.2992Z" fill="#DEBAA1"/>
<path d="M41.1832 29.8658L35.8635 29.2992L30.6828 28.7481C30.5786 28.7326 30.4767 28.7017 30.3787 28.6539C30.4071 28.6567 30.4356 28.6581 30.464 28.6581C30.7911 28.6581 31.1489 28.481 31.4855 27.9721C31.5337 27.9032 31.5787 27.8301 31.6221 27.7514L41.1832 28.7706V29.8658" fill="#D3583A"/>
<path d="M30.9949 22.8505L22.0974 20.4311L21.9244 20.313L21.3737 23.0502L29.8644 28.4669C30.7318 29.0194 31.6964 28.2097 32.0068 26.6646C32.3181 25.121 31.8622 23.4059 30.9949 22.8505" fill="#F0724E"/>
<path d="M29.9837 28.5344C29.9426 28.5134 29.9023 28.4908 29.8644 28.4669L21.3801 23.0544L29.8644 28.4669C29.9023 28.4908 29.941 28.5119 29.979 28.5316C29.9805 28.533 29.9821 28.5344 29.9837 28.5344" fill="#DEBAA1"/>
<path d="M30.3787 28.6539C30.2389 28.6413 30.1062 28.5977 29.9837 28.5345C29.9821 28.5345 29.9805 28.5331 29.979 28.5317C30.1006 28.5921 30.2231 28.6258 30.3447 28.6371C30.3558 28.6427 30.3676 28.6483 30.3787 28.6539Z" fill="#D3583A"/>
<path d="M30.464 28.6581C30.4356 28.6581 30.4071 28.6567 30.3787 28.6539C30.3676 28.6483 30.3558 28.6427 30.3447 28.6371C30.3716 28.6399 30.3984 28.6399 30.4261 28.6399C30.8132 28.6399 31.1884 28.3995 31.4855 27.9721C31.1489 28.481 30.791 28.6581 30.464 28.6581" fill="#B8442B"/>
<path d="M30.4261 28.6399C30.3984 28.6399 30.3716 28.6398 30.3447 28.637C30.223 28.6258 30.1006 28.592 29.979 28.5316C29.941 28.5119 29.9023 28.4908 29.8644 28.4669L21.3801 23.0544C21.4314 23.074 21.4835 23.0839 21.5349 23.0839C21.7948 23.0839 22.0476 22.8379 22.2024 22.4259L31.7327 27.5278C31.6521 27.6979 31.5692 27.8455 31.4854 27.9721C31.1884 28.3994 30.8132 28.6399 30.4261 28.6399" fill="#D3583A"/>
<path d="M21.8975 20.2582L21.8991 20.2511C21.0135 19.6044 19.6042 18.1845 18.4129 17.8809L15.2435 18.0861C15.05 18.0988 14.9418 18.5107 15.0674 18.7722C15.6986 20.0838 18.6554 21.2676 19.3964 21.754L21.241 22.9658L21.2845 23.0052C21.685 23.2667 22.1392 22.859 22.298 22.09C22.4521 21.3491 22.2719 20.5478 21.8975 20.2582" fill="#F0724E"/>
<path d="M21.3801 23.0544C21.3485 23.0417 21.3161 23.0263 21.2845 23.0052L21.241 22.9658L19.3964 21.7539C18.6554 21.2675 15.6986 20.0838 15.0674 18.7721C15.0334 18.7018 15.016 18.6203 15.0136 18.5374C15.0168 18.6203 15.0334 18.7018 15.0674 18.7721C15.6986 20.0838 18.6554 21.2675 19.3964 21.7539L21.241 22.9658L21.2845 23.0052C21.3161 23.0263 21.3485 23.0417 21.3801 23.0544Z" fill="#DEBAA1"/>
<path d="M22.3012 22.0773C22.3012 22.0759 22.3012 22.0759 22.302 22.0745C22.3012 22.0759 22.3012 22.0759 22.3012 22.0773ZM22.3043 22.0619C22.3043 22.0605 22.3043 22.0591 22.3051 22.0576C22.3043 22.0591 22.3043 22.0605 22.3043 22.0619ZM22.3067 22.0464C22.3075 22.045 22.3075 22.0436 22.3075 22.0422C22.3075 22.0436 22.3075 22.045 22.3067 22.0464ZM22.3091 22.0337C22.3099 22.0323 22.3099 22.0309 22.3106 22.0281C22.3099 22.0309 22.3099 22.0323 22.3091 22.0337ZM22.3122 22.0183C22.3122 22.0169 22.313 22.0155 22.313 22.0141C22.313 22.0155 22.3122 22.0169 22.3122 22.0183ZM22.3154 22.0028C22.3154 22.0014 22.3154 22 22.3154 21.9986C22.3154 22 22.3154 22.0014 22.3154 22.0028ZM22.3178 21.9859V21.9845V21.9859ZM22.3201 21.9719V21.9705V21.9719ZM22.3225 21.9564V21.955V21.9564Z" fill="#D3583A"/>
<path d="M21.5349 23.0839C21.4835 23.0839 21.4314 23.0741 21.38 23.0544C21.3484 23.0417 21.3161 23.0263 21.2845 23.0052L21.241 22.9658L19.3964 21.754C18.6554 21.2675 15.6985 20.0838 15.0673 18.7721C15.0334 18.7019 15.0168 18.6203 15.0136 18.5374C15.0113 18.4671 15.0199 18.3954 15.0373 18.3321C15.9837 19.4835 18.4382 20.4859 19.1041 20.9217L20.9487 22.135L20.9922 22.1729C21.0751 22.2278 21.1596 22.253 21.2434 22.253C21.5673 22.253 21.8801 21.8692 22.0057 21.2605C22.065 20.9737 22.0737 20.6813 22.0428 20.4114C22.2956 20.7502 22.4133 21.3589 22.3225 21.955V21.9564C22.3217 21.9606 22.3209 21.9648 22.3201 21.9705V21.9719C22.3193 21.9761 22.3185 21.9803 22.3178 21.9845V21.9859C22.317 21.9902 22.3162 21.9944 22.3154 21.9986C22.3154 22 22.3154 22.0014 22.3154 22.0028C22.3146 22.0056 22.3138 22.0098 22.313 22.0141C22.313 22.0155 22.3122 22.0169 22.3122 22.0183C22.3114 22.0211 22.3106 22.0253 22.3106 22.0281C22.3098 22.0309 22.3098 22.0323 22.3091 22.0337C22.3091 22.0365 22.3083 22.0394 22.3075 22.0422C22.3075 22.0436 22.3075 22.045 22.3067 22.0464C22.3059 22.0506 22.3059 22.0548 22.3051 22.0576C22.3043 22.0591 22.3043 22.0605 22.3043 22.0619C22.3035 22.0661 22.3027 22.0703 22.302 22.0745C22.3012 22.0759 22.3012 22.0759 22.3012 22.0773C22.3004 22.0815 22.2996 22.0858 22.298 22.09C22.1724 22.7015 21.8596 23.0839 21.5349 23.0839" fill="#D3583A"/>
<path d="M49.9993 22.5553H45.374L41.8373 23.292C41.4644 23.3693 41.1832 23.9316 41.1832 24.5994V33.2693L40.1942 37.4954C39.9137 38.6903 40.3071 40.0357 41.0299 40.3605C41.376 40.5137 41.6169 41.0522 41.6169 41.6665L51.7357 41.5906C51.9024 40.196 52.1481 38.8281 52.4696 37.5052C53.1284 34.7933 53.4674 31.8804 53.4674 28.9379V25.3375C53.4674 24.5825 53.1774 23.926 52.7651 23.7475L49.9993 22.5553" fill="#3D7195"/>
<path d="M41.3072 40.6051C41.4945 40.8553 41.6169 41.2377 41.6169 41.6665L51.7357 41.5906C51.776 41.2588 51.8258 40.9327 51.8787 40.6051H41.3072Z" fill="white"/>
<path d="M51.5272 23.9963C52.4846 23.763 53.3488 25.2447 53.4571 27.3071C53.5653 29.3681 52.8764 31.2294 51.919 31.4614C50.9623 31.6948 50.0981 30.213 49.9899 28.152C49.8816 26.0896 50.5705 24.2283 51.5272 23.9963" fill="#F0724E"/>
<path d="M65.076 27.4604L65.0681 26.4721C65.0563 25.1028 64.4188 24.0006 63.6501 24.0188L52.0169 24.3183C51.2475 24.3394 50.6281 25.4753 50.6384 26.8418L50.6463 27.8301C50.6582 29.1994 51.2957 30.3016 52.0643 30.2833L63.6991 29.9839C64.4669 29.9642 65.0879 28.8269 65.076 27.4604Z" fill="#F0724E"/>
<path d="M53.4452 30.2468L57.8817 30.1329L53.4452 30.2468Z" fill="#DEBAA1"/>
<path d="M53.0131 30.258L53.4452 30.2473L53.0131 30.258Z" fill="#325569"/>
<path d="M52.3226 30.2763L53.0131 30.2589L52.3424 30.2763C52.3353 30.2763 52.329 30.2763 52.3226 30.2763Z" fill="#D3583A"/>
<path d="M52.3179 30.2763C51.4079 30.2763 50.6558 28.9632 50.6424 27.3366C50.6416 27.1961 50.6479 27.0583 50.6574 26.9219C50.8407 28.2195 51.5019 29.1839 52.2816 29.1839C52.2895 29.1839 52.2974 29.1839 52.3061 29.1825L62.5402 28.9196C62.5813 28.9998 62.624 29.0743 62.669 29.146C63.0182 29.7252 63.4013 29.9192 63.7481 29.9192C63.752 29.9192 63.756 29.9192 63.7599 29.9192C63.6501 29.9628 63.5372 29.9867 63.421 29.9909L57.8817 30.1329L53.4452 30.2468L53.0131 30.258L52.3226 30.2763C52.3211 30.2763 52.3195 30.2763 52.3179 30.2763" fill="#D3583A"/>
<path d="M63.2907 24.075L72.2403 22.3726L72.4173 22.2685L72.8976 25.0479L64.2782 29.7744C63.3973 30.2566 62.4541 29.3695 62.1831 27.802C61.9114 26.2358 62.4107 24.5572 63.2907 24.075" fill="#F0724E"/>
<path d="M64.1557 29.8334C64.1573 29.8334 64.1581 29.832 64.1597 29.8306C64.1936 29.818 64.2268 29.8011 64.2608 29.7842C64.2268 29.8025 64.1913 29.818 64.1557 29.8334" fill="#DEBAA1"/>
<path d="M63.7599 29.9192C63.771 29.915 63.7821 29.9107 63.7931 29.9065C63.9148 29.9051 64.0372 29.8813 64.1597 29.8306C64.1581 29.8321 64.1573 29.8335 64.1557 29.8335C64.0325 29.8855 63.899 29.9178 63.7599 29.9192" fill="#D3583A"/>
<path d="M63.7481 29.9192C63.4013 29.9192 63.0182 29.7252 62.669 29.146C62.9739 29.6282 63.3729 29.9065 63.7884 29.9065C63.79 29.9065 63.7916 29.9065 63.7931 29.9065C63.7821 29.9107 63.771 29.915 63.7599 29.9192C63.756 29.9192 63.7521 29.9192 63.7481 29.9192Z" fill="#B8442B"/>
<path d="M63.7884 29.9065C63.3729 29.9065 62.9739 29.6282 62.669 29.146C62.5892 29.0138 62.511 28.8606 62.4351 28.6849L72.0847 24.3562C72.2348 24.7991 72.4963 25.0704 72.768 25.0704C72.8091 25.0704 72.8502 25.0634 72.8913 25.0508L64.2782 29.7744C64.2726 29.7772 64.2663 29.7814 64.2608 29.7843C64.2268 29.8011 64.1936 29.818 64.1597 29.8307C64.0372 29.8813 63.9148 29.9051 63.7931 29.9065C63.7915 29.9065 63.79 29.9065 63.7884 29.9065Z" fill="#D3583A"/>
<path d="M72.445 22.2151L72.4442 22.2081C73.3447 21.6331 74.7888 20.3299 75.9864 20.1232L79.1479 20.5829C79.3399 20.611 79.4378 21.03 79.3067 21.2816C78.6423 22.5413 75.6578 23.4874 74.9057 23.912L73.0319 24.9748L72.9877 25.0099C72.5808 25.2405 72.1369 24.7948 71.9986 24.016C71.8635 23.2611 72.0642 22.4752 72.445 22.2151" fill="#F0724E"/>
<path d="M72.8913 25.0507C72.9237 25.0409 72.9561 25.0268 72.9877 25.01L73.0319 24.9748L74.9057 23.912C75.6578 23.4874 78.6423 22.5413 79.3067 21.2816C79.373 21.1551 79.3809 20.985 79.3478 20.8444C79.3809 20.985 79.373 21.1551 79.3067 21.2816C78.6423 22.5413 75.6578 23.4874 74.9057 23.912L73.0319 24.9748L72.9877 25.01C72.9561 25.0268 72.9237 25.0409 72.8913 25.0507Z" fill="#DEBAA1"/>
<path d="M72.768 25.0704C72.4315 25.0704 72.1123 24.6557 71.9986 24.016C71.8825 23.3679 72.0152 22.6987 72.2956 22.3585C72.2577 22.6242 72.2593 22.918 72.3106 23.2076C72.4252 23.8487 72.7451 24.2634 73.0809 24.2634C73.1535 24.2634 73.2278 24.2438 73.3005 24.2016L73.3455 24.1679L75.2193 23.105C75.8955 22.7226 78.3721 21.9171 79.3477 20.8444C79.3809 20.985 79.373 21.1551 79.3067 21.2816C78.6423 22.5413 75.6578 23.4874 74.9057 23.912L73.0319 24.9748L72.9876 25.01C72.956 25.0268 72.9237 25.0409 72.8913 25.0507C72.8502 25.0634 72.8091 25.0704 72.768 25.0704" fill="#D3583A"/>
<path d="M46.0344 29.6338H46.6593C48.3538 29.6338 49.7394 27.1679 49.7394 24.1524V22.5553H45.374L42.9551 23.06V24.1524C42.9551 27.1679 44.3407 29.6338 46.0344 29.6338" fill="#F0724E"/>
</svg>
